# xmcd
#
# Track frame offsets:
#	150
#	15998
#	30070
#	44090
#	58595
#	71108
#	84778
#	98498
#	111583
#	124103
#	140078
#
# Disc length: 2061 seconds
#
# Revision: 5
# Processed by: cddbd v1.5.1PL0 Copyright (c) Steve Scherf et al.
# Submitted via: MusicWizard 7.0.2
#
DISCID=8c080b0b
DTITLE=Vern Gosdin - 10 Years Of Greatest Hits (Newly Recorded)
DYEAR=1990
DGENRE=Country
TTITLE0=If You're Gonna Do Me Wrong (Do It Right)
TTITLE1=Slow Burnin' Memory
TTITLE2=This Ain't My First Rodeo
TTITLE3=Today My World Slipped Away
TTITLE4=Way Down Deep
TTITLE5=Is It Raining At Your House
TTITLE6=Friday Night Feelin'
TTITLE7=Til The End
TTITLE8=I Can Tell By The Way You Dance
TTITLE9=Time Stood Still
TTITLE10=Was It Just The Wine
EXTD=(c)1990 CBS Records\nupc 07464454092
EXTT0=
EXTT1=
EXTT2=
EXTT3=
EXTT4=
EXTT5=
EXTT6=
EXTT7=
EXTT8=
EXTT9=
EXTT10=
PLAYORDER=
